<?xml version="1.0" encoding="UTF-8"?>
<svg version="1.1" xmlns="http://www.w3.org/2000/svg" width="24" height="24">
<path d="M0 0 C5.28 0 10.56 0 16 0 C16 7.26 16 14.52 16 22 C12.00889681 23.9955516 10.30013434 24.19546065 6 24 C6 23.01 6 22.02 6 21 C4.02 21 2.04 21 0 21 C0 19.02 0 17.04 0 15 C0.66 15 1.32 15 2 15 C2.33 15.99 2.66 16.98 3 18 C3.99 18.33 4.98 18.66 6 19 C6 13.39 6 7.78 6 2 C2.88214887 2.64644661 2.88214887 2.64644661 2 5 C1.34 5 0.68 5 0 5 C0 3.35 0 1.7 0 0 Z " fill="#000000" transform="translate(8,0)"/>
<path d="M0 0 C2.86724686 0.57344937 3.8614515 0.8614515 6 3 C5.67028521 6.29714793 5.3773161 7.6226839 3 10 C2.01 10 1.02 10 0 10 C0 8.68 0 7.36 0 6 C-1.65 6 -3.3 6 -5 6 C-5 5.34 -5 4.68 -5 4 C-3.35 4 -1.7 4 0 4 C0 2.68 0 1.36 0 0 Z " fill="#000000" transform="translate(5,5)"/>
</svg>
