<?xml version="1.0" encoding="UTF-8"?>
<svg version="1.1" xmlns="http://www.w3.org/2000/svg" width="24" height="24">
<path d="M0 0 C5.28 0 10.56 0 16 0 C16 2.31 16 4.62 16 7 C15.34 7 14.68 7 14 7 C13.896875 6.360625 13.79375 5.72125 13.6875 5.0625 C13.460625 4.381875 13.23375 3.70125 13 3 C12.01 2.67 11.02 2.34 10 2 C10 7.61 10 13.22 10 19 C10.99 18.67 11.98 18.34 13 18 C13.33 16.35 13.66 14.7 14 13 C14.66 13 15.32 13 16 13 C16 15.64 16 18.28 16 21 C14.02 21 12.04 21 10 21 C10 21.99 10 22.98 10 24 C8.52031676 23.85950482 7.04125484 23.71245174 5.5625 23.5625 C4.73878906 23.48128906 3.91507812 23.40007813 3.06640625 23.31640625 C1 23 1 23 0 22 C-0.08700342 20.36527118 -0.10701063 18.72685945 -0.09765625 17.08984375 C-0.09443359 16.10048828 -0.09121094 15.11113281 -0.08789062 14.09179688 C-0.07951172 13.05087891 -0.07113281 12.00996094 -0.0625 10.9375 C-0.05798828 9.89271484 -0.05347656 8.84792969 -0.04882812 7.77148438 C-0.03699927 5.18096546 -0.01906319 2.59047578 0 0 Z " fill="#000000" transform="translate(0,0)"/>
<path d="M0 0 C2.86724686 0.57344937 3.8614515 0.8614515 6 3 C5.67028521 6.29714793 5.3773161 7.6226839 3 10 C2.01 10 1.02 10 0 10 C0 8.68 0 7.36 0 6 C-1.65 6 -3.3 6 -5 6 C-5 5.34 -5 4.68 -5 4 C-3.35 4 -1.7 4 0 4 C0 2.68 0 1.36 0 0 Z " fill="#000000" transform="translate(18,5)"/>
</svg>
